<svg width="100" height="100" version="1.1" viewBox="0 0 26.458 26.458" xmlns="http://www.w3.org/2000/svg">
  <rect class="color_1" stroke="none" x="0" y="0" width="100%" height="100%" />
  <rect class="color_2" fill="none" stroke-width="1" x="0" y="0" width="100%" height="100%" />
  <g>
    <path class="color_2" stroke="none" transform="scale(.26458)" d="m50 14c-10 2-24 16-24 26 0 10 4 26-2 32s14 14 20 14c0-4 4-28 4-32-6 0-14-4-16-6 8 2 28 2 36 0-2 2-10 6-16 6 0 4 4 28 4 32 6 0 26-8 20-14s-2-22-2-32c0-10-14-24-24-26zm0 4c-8e-6 10 1 11.999 1 26 0 2.0001-2 2.0001-2 0 0-14.001 0.99999-16 1-26z"/>
  </g>
</svg>
