<svg width="100" height="100" version="1.1" viewBox="0 0 26.458 26.458" xmlns="http://www.w3.org/2000/svg">
  <rect class="color_1" stroke="none" x="0" y="0" width="100%" height="100%" />
  <rect class="color_2" fill="none" stroke-width="1" x="0" y="0" width="100%" height="100%" />
  <g>
    <path class="color_2" stroke="none" transform="scale(.26458)" d="m10 10s14.813 14.813 20.217 18.941c-2.5688 3.7263-4.2168 7.6279-4.2168 11.059 0 10 4 26-2 32s14 14 20 14c0-0.97051 2-14 2.2109-15.908-0.78659 0.67902-4.2104 3.9079-6.1797 6.1699-0.018935-10.026 1.9687-20.263 4.2461-22.199-4.2774-0.063454-9.4985-5.0054-12.277-6.0625 8 2 28 2 36 0-3.7866 4.1902-8.0004 6.0008-11.773 5.8379 1.773 2.1629 3.7734 12.481 3.7734 22.162-1.8706-1.5539-4.0009-3.9994-6.0586-6.041 0.057653 2.0416 2.0586 14.052 2.0586 16.041 6 0 26-8 20-14s-2-22-2-32c0-3.4307-1.648-7.3323-4.2168-11.059 5.4038-4.1288 20.217-18.941 20.217-18.941l-24.854 13.383c-4.6481-4.7083-10.355-8.4245-15.146-9.3828-4.7916 0.95831-10.498 4.6745-15.146 9.3828z"/>
  </g>
</svg>
