<svg width="100" height="100" version="1.1" viewBox="0 0 26.458 26.458" xmlns="http://www.w3.org/2000/svg">
  <rect class="color_1" stroke="none" x="0" y="0" width="100%" height="100%" />
  <rect class="color_2" fill="none" stroke-width="1" x="0" y="0" width="100%" height="100%" />
  <g>
    <path class="color_2" stroke="none" transform="scale(.26458)" d="m50 14c-6.5876 1.3175-14.909 7.8433-19.822 15.002-2.8884-4.0687-6.1777-9.002-6.1777-9.002 0 10.102 1.2537 18.898 2.3594 26.48 0.82897 9.4316 2.4603 20.7-2.3594 25.52-6 6 10 15 26 15 16 0 32-9 26-15-4.8196-4.8196-3.1883-16.088-2.3594-25.52 1.1056-7.5824 2.3594-16.378 2.3594-26.48 0 0-3.2893 4.9333-6.1777 9.002-4.9135-7.1586-13.235-13.684-19.822-15.002zm-18 34c8 2 28 2 36 0-2 2-8 6-18 6s-16-4-18-6zm18 11.922c0.5 0 1 0.35883 1 1.0781 0 10.07-1 19-1 19s-1-8.9298-1-19c0-0.7193 0.5-1.0781 1-1.0781zm4 0c0.5 0 1 0.35883 1 1.0781 0 10.07-3 19-3 19s1-8.9298 1-19c0-0.7193 0.5-1.0781 1-1.0781zm-8.0938 0.03906c0.03113-0.0016 0.0625-0.0012 0.09375 0 0.5 0.01974 1 0.39789 1 1.1172 0 10.07 1 18.922 1 18.922s-3-8.9298-3-19c0-0.67434 0.43933-1.0154 0.90625-1.0391z"/>
  </g>
</svg>
