<svg
  width="100"
  height="100"
  viewBox="0 0 26.458333 26.458334"
  version="1.1"
  id="svg956"
  xmlns="http://www.w3.org/2000/svg"
  xmlns:svg="http://www.w3.org/2000/svg">
  <path
    class="color_1"
    stroke="none"
    d="M 11.238028,3.767356 11.046877,4.1415015 C 10.239397,4.2082085 9.2975366,4.4030409 8.3570788,4.7707716 L 7.9975871,4.4934369 6.6808338,5.1281886 6.6735306,5.6449104 C 5.9317436,6.1421216 5.248885,6.7795762 4.7043324,7.5833634 L 4.2744403,7.5747021 3.5946835,8.868879 3.8752214,9.2592639 C 3.661047,9.892203 3.5194707,10.595849 3.468868,11.376309 l -0.4761642,0.279841 0.098729,1.458642 0.4285049,0.179191 c 0.1224519,1.110781 0.4053651,2.345055 0.8849985,3.716138 4.9704067,0.04042 5.8190678,3.55627 9.0352148,3.582425 5.265164,-0.249577 -0.808002,-8.48592 6.501423,-8.426477 0.03132,-0.169659 0.05459,-0.336009 0.07125,-0.499664 L 20.383145,11.437895 20.25287,9.9820962 19.892277,9.8401504 C 19.741626,9.2325131 19.484273,8.6784255 19.151314,8.1752589 L 19.357417,7.6782406 18.3995,6.5738403 17.84125,6.7165832 C 17.474333,6.4020448 17.080078,6.11828 16.674063,5.8631872 L 16.701453,5.2913328 15.426685,4.576076 14.891969,4.9386424 C 14.185769,4.6379234 13.509104,4.4172587 12.941371,4.272151 L 12.699907,3.7792447 Z" />
  <path
    id="neck"
    class="color_2"
    fill="none"
    stroke-width="0.87716"
    stroke-linecap="round"
    stroke-linejoin="round"
    stroke-miterlimit="4"
    d="m 19.90691,12.593405 c -6.942327,0.106595 -0.489921,6.828066 -6.045269,8.29 -3.216254,0.584773 -4.6781864,-3.50864 -9.3563714,-3.50864" />
  <path
    id="spikes"
    class="color_3"
    stroke="none"
    d="m 11.979103,1.451158 -0.603982,2.3345578 1.169399,0.00951 z M 6.3209394,2.7126002 6.8097346,5.0736153 7.8634466,4.5659199 Z m 10.8683316,0.2031125 -1.654012,1.7539409 1.020126,0.572105 z m 3.429624,2.7001679 -2.150415,1.091008 0.766439,0.8832108 z M 1.8618872,7.1294423 3.6606722,8.734207 4.2044778,7.6988651 Z m 18.3651548,3.0143867 0.103704,1.164636 2.278198,-0.790236 z M 2.9950441,11.786068 0.70070517,12.527595 3.0739231,12.953086 Z" />
  <path
     id="mask"
     class="color_3"
     fill="none"
     stroke-width="1.16954"
     stroke-linecap="round"
     stroke-linejoin="round"
     stroke-miterlimit="4"
     d="m 23.01875,18.25625 -10.492749,-1.174089 2.774136,4.573593 6.268279,3.122728 m -0.43526,-0.211294 1.333841,-6.315075" />
  <path
    id="ball"
    class="color_3"
    stroke="none"
    transform="matrix(0.23246401,-0.05206968,0.05206968,0.23246401,-0.11667318,5.4832217)"
    d="m 44,68 c -2.573869,0.367695 -7.632305,-3.426132 -8,-6 -0.367695,-2.573869 3.426132,-7.632305 6,-8 2.573869,-0.367695 7.632305,3.426132 8,6 0.367695,2.573869 -3.426132,7.632305 -6,8 z" />

  <text class="color_2 symbol" x="11" y="13.5"
    stroke="none"
    style="text-anchor: middle;font: bold 7px sans-serif">00</text>
</svg>