<svg viewBox="0 0 100 100" width="100" height="100" xmlns="http://www.w3.org/2000/svg">
  <path class="color_2" stroke="none" d="M 30,46
    l 40,0 0,30
    C 64,70 36,70 30,76
    Z" />
  <path class="color_1" stroke="none" d="M 50,14
    C 60,16 74,30 74,40
    C 74,50 70,66 76,72
    C 82,78 62,86 56,86
    C 56,82 52,58 52,54
    C 58,54 66,50 68,48
    C 60,50 40,50 32,48
    C 34,50 42,54 48,54
    C 48,58 44,86 46,86
    C 38,86 18,78 24,72
    C 30,66 26,50 26,40
    C 26,30 40,16 50,14
    Z" />
</svg>